<svg xmlns="http://www.w3.org/2000/svg" width="256" height="256" viewBox="0 0 256 256">
  <path d="m127.8 28 35.58 19.81-122.4 67.78-35.49-20.1 0.02-0.25 122.3-67.24z" fill="#000"/>
  <path d="m5.47 160.2 35.37-20.03 78.7 43.56-34.86 19.29-79.21-42.82z" fill="#000"/>
  <path d="m250.5 95.01-36 20.41-79.01-43.64 35.64-20.17 79.37 43.4z" fill="#000"/>
  <path d="m92.82 207.6 121.6-67.27 36.39 19.73-122.9 67.17-35.13-19.63z" fill="#000"/>
  <path d="m91.55 108.1 45.82-23.06-9.56 42.53 36.92-25.47-13.54 50.77-23.38 14.17-23-14-13.26-44.94z" fill="#000"/>
</svg>
