<svg xmlns="http://www.w3.org/2000/svg" width="256" height="256" fill="none" viewBox="0 0 256 256">
<!-- SVG created with Arrow, by QuiverAI (https://quiver.ai) -->
  <path d="m127.4 6 35.23 7.6 4.15 10.66-14.69 13.15 12.32 19.35-17.62 25.8 27.59-23.43-5.35-20.15 18.25-12.69 0.19 0.1c1.39 0.72 25.5 30.68 25.88 32.86 0.84 4.64 4.04 44.54 4.06 45.34l-9.99 29.27-9.71-34.77 15.27-38.46-17.96 37.79 9.19 37.39 10.73 12.13-18.83 24.78-26.9-3.16-6.27 9.24 0.85 12.61-13.64 7.31-18.26 0.99-16.18-0.05-5.3-12.54-4.99 10.44-12.5-5.94 0.3-13.02-6.84-9.04-27.07 3.16-19.96-25.3 10.4-12.35-12.75-30.48 4.47-44.82 31.48-40.11 54.45-13.66zm-85.09 54.63 17.62 37.57-11.3 35.66-11.52-29.27 5.2-43.96zm144.8 112.5-3.3 28.5-6.21-28.5-1.14-0.39 8.18 44.69-31.17 31.8 7.29-40.73-2.59-5.82-2.14-0.45-7.64 4.7-3.93 11.52-5.82-11.07-18.25-0.35-13.53 0.35-9.9-5.15-4.7 5.69 9.7 41.82-31.27-32.31 7.59-43.36-7.59 27.56-3.54-28 11.13-1.39 0.55 0.5 22.88 76.49c1.05 0.61 22.23 0 27.18-0.5h24.58l23.43-76.49 10.21 0.89zm-56.45-43.62 12.31 31.48-8.95 6.94-6.94-7.84-6.69 7.54-7.24-6.19 10.05-31.93 4.43 7.19 3.03-7.19zm-28.5-30.15-28.63 7.09-19.1 17.62 8.39-6.34 7.35 26.5-19.54-8.69 19.29 10.39 17.29-3.2-27.92 29.51 31.03-30.91 19.54-8.49 5.54-19 10.19-6.94-10.19 5.94-13.24-13.48zm51.61 0 28.03 7.09 18.79 17.03-8.09-5.75-8.09 27.4-16.52-3 27.75 30.11-30.18-30.91-19.84-8.49-4.94-19-11.17-6.94 10.87 5.94 13.39-13.48z" fill="#000"/>
</svg>