<svg xmlns="http://www.w3.org/2000/svg" width="250" height="250" viewBox="0 0 250 250">
<!-- SVG created with Arrow, by QuiverAI (https://quiver.ai) -->
  <path d="m149.9 49 47.26 40.96 1.77 14.75-11.2-10.63-8.79 7.65-28.13-52.11-0.91-0.62z" fill="#000"/>
  <path d="m150.3 49.93 28 50.71-11.03 9.54-14-18.82-3.59-41.86 0.62 0.43z" fill="#000"/>
  <path d="m245.4 64.16-42.82 42.88 9.65 8.17 33.17-51.05z" fill="#000"/>
  <path d="m187.7 95.42-18.62 24.69 38.14-6.98-19.52-17.71z" fill="#000"/>
  <path d="m219.9 119.1-10.81-4.01-20.12 3.98 54.91 39.1-22.96-38.62-1.02-0.45z" fill="#000"/>
  <path d="m187.7 119.5-17.62 3.4 7.02 8.8 66.12 27.1-55.52-39.3z" fill="#000"/>
  <path d="m150 91.41-4.8-0.8-1.18 5.81 17.89 39.64 2.03-0.95 2.53 7.79 1.55-20.74 2.93-5.94-20.95-24.81z" fill="#000"/>
  <path d="m138.5 88.37-8.51 16.04 12.75-14.2 4.48-0.99-8.72-0.85z" fill="#000"/>
  <path d="m143.5 91.06-14.01 13.75 13.9-8 0.11-5.75z" fill="#000"/>
  <path d="m145.4 97.89 8.42 37.3 6.19-1.48-14.61-35.82z" fill="#000"/>
  <path d="m167.9 123.8 7.84 9.7 7.13 2.7-17.73 7.9 2.76-20.3z" fill="#000"/>
  <path d="m147.7 122.7-71.99 76.83 83.36-63.95 5.36 2.6 0.71 5.72 1.94-21.81 2.82-5.44-2.19-2.98-1.24 1.38 1.43 2.71-3.8 5.06-1.33 15.36-1.08-3.08-13.99-12.4z" fill="#000"/>
  <path d="m140 164.5 32.89 35.06-40.78-30.75 7.89-4.31z" fill="#000"/>
  <path d="m126.2 172.5 4.74-3.61 41.35 30.64-46.09-27.03z" fill="#000"/>
  <path d="m99.1 49.31-47.84 40.65-1.77 14.75 11.2-10.63 8.79 7.65 29.14-52.42h0.48z" fill="#000"/>
  <path d="m99.53 49.62-29.32 51.02 11.9 8.5 13.7-17.78 4.04-41.74h-0.32z" fill="#000"/>
  <path d="m5.08 63.85 41.15 42.88-10.24 8.33-30.91-51.21z" fill="#000"/>
  <path d="m60.69 95.42 18.62 22.51-38.14-4.8 19.52-17.71z" fill="#000"/>
  <path d="m29.06 119.1 10.81-4.32 19.11 4.17-52.9 39.22 21.96-38.62 1.02-0.45z" fill="#000"/>
  <path d="m60.69 119.2 17 3.55-7.02 9.27-64.16 26.79 54.18-39.61z" fill="#000"/>
  <path d="m100.6 90.8 2.18-0.59 5.97-1.54 10.35 15.74-12.51-12.4-2.77 0.47-3.22-1.68z" fill="#000"/>
  <path d="m101.1 91.11 3.8 1.37-17.73 42.04-2.98 7.39-2.09-19.75-2.92-5.02 21.92-26.03z" fill="#000"/>
  <path d="m104.9 93.92 14 10.79-13.89-7.59-0.11-3.2z" fill="#000"/>
  <path d="m104.7 98.2-9.81 37.86-6.19-2.35 16-35.51z" fill="#000"/>
  <path d="m82.22 123.8-7.84 9.7-8.74 2.7 19.32 7.75-2.74-20.15z" fill="#000"/>
  <path d="m101.3 122.2 21.76 24.05-6.25 7.24-21.62-17.23 6.11-14.06z" fill="#000"/>
  <path d="m73.68 139.8 34.08 22.63 8.45-8.03-22.96-18.15-4.76-1.03-3.7 9.12-11.11-4.54z" fill="#000"/>
</svg>