<svg xmlns="http://www.w3.org/2000/svg" width="256" height="256" viewBox="0 0 256 256" fill="none">
<path d="M 127.81,28 L 163.39,47.81 L 40.96,115.59 L 5.47,95.49 L 5.49,95.24 L 127.81,28 Z" fill="black"/>
<path d="M 5.47,160.19 L 40.84,140.16 L 119.54,183.72 L 84.68,203.01 L 5.47,160.19 Z" fill="black"/>
<path d="M 250.53,95.01 L 214.53,115.42 L 135.52,71.78 L 171.16,51.61 L 250.53,95.01 Z" fill="black"/>
<path d="M 92.82,207.61 L 214.42,140.34 L 250.81,160.07 L 127.95,227.24 L 92.82,207.61 Z" fill="black"/>
<path d="M 91.55,108.12 L 137.37,85.06 L 127.81,127.59 L 164.73,102.12 L 151.19,152.89 L 127.81,167.06 L 104.81,153.06 L 91.55,108.12 Z" fill="black"/>
</svg>