<svg xmlns="http://www.w3.org/2000/svg" width="250" height="250" viewBox="0 0 250 250">
<!-- SVG created with Arrow, by QuiverAI (https://quiver.ai) -->
  <path d="m124.9 213.5 2.87-2.74 14.97 6.39v7.89l-17.84-11.54z" fill="#000"/>
  <path d="m245 124.9-14.39 8.53-9.32 8.89 5.49-14.69 13.09-10.42 3.37-25.92-0.52 0.2-11.99 13.8-4.62 10.7 0.95-15.73 9.71-15.06-4.05-24.89-0.58 0.07-9.78 16.47-0.64 10.41 2.04-31.82-11.61-22.32-4.43 17.8 4.39 15.86-8.4-14.06-5.89-17.29-20.55-12.1 8.91 21.58 15.04 8.91 11.6 15.81-11.21-11.22-18.44-0.78-0.08 0.29c5.7 6.57 11.89 12.87 14.2 13.41l16.23 2.56 8.55 23.93-8.36-16.86-16.94-5.44 9.84 18.3 16.4 5.82-0.59 25.29-3.41-17.66-14.62-10.78 4.54 20.42 13.08 11.01-8.92 24.91 2.82-19.88-10.1-13.82-2.1 20.66 8.91 13.93-12.53 21.35 5.14-16.35-5.05-18.3-8.91 20.5 3.41 16.92-22.87 16.35 0.58-17.41 14.52-15.86 0.23 0.15-0.88 17.75-14.89 15.41-26.54 7.19 18.11-9.29 5.7-16.4c-6.85 2.89-17.47 9.69-19.78 11.73l-5.95 15.16-17.6 4.2-18.35-4.2-6.32-15.68c-2.58-2.05-11.63-8.12-18.83-10.82l5.41 16.55 18.49 9.1-27-8.12-1.8-17.92-14.52-14.53-0.23 17.73 15.17 14.04-23.41-15.17 4.54-16.88-9.16-20.39-5.39 17.49 7.97 16.18-16.84-21.48 10.7-13.56-2.04-20.51-11.78 14.53 2.76 18.87-8.57-25.29 13.6-10.14 5.7-20.01-15.4 10.78-3.41 17.82 0.58-24.78 14.52-5.71 11.49-19.43-18.51 6.24-8.37 15.81 4.62-23.67 19.85-2.88c3.29-0.87 11.73-9.37 15.33-13.16l0.05-0.24-17.95 1.02-12.7 12.7 10.88-18.15 16.47-8.34 8.56-21.61h-0.11l-0.1 0.11-20.66 12.31-5.78 16.92-8.91 13.93 4.53-15.81-3.77-17.15-11.32 22.01 3.6 12.1 2.26 6.24-5.05 14.53 0.2-12.1-9.49-16.23-4.37 25.56 9.49 13.93 0.76 14.95-3.69-10.29-11.86-13.3 2.26 26.49 13.29 10.14 5.49 14.41-7.13-8.89-15.4-7.94 9.49 23.67 17.48 6.49 11.07 13.56-9.49-7.21-20.3-3.53 18.49 19.7 19.85 1.72 11.69 8.89-9.49-2.88-19.85 2.04 23.78 13.56 17.48-3.46 18.49 4.29-14.52-0.55-16.47 8.77c8.35 2.73 18.97 4.18 26.36 5.05l15.99-9.52 14.2 2.41-12.49 9.19-0.58 7.89 18.47-13.94 18.49-5.2 15.99 9.52c8.34-1.17 17.26-3.22 26.17-5.66l-17.48-8.51-11.21 0.55 15.99-4.29 17.48 3.74c8.91-4.04 14.67-7.68 23.02-13.4l-19.62-2.48-9.49 3.46 12.49-10.65 19-0.86 19.55-19.43-20.43 4.29-8.35 6.5 8.35-13.93 18.49-6.8 11.25-23.02z" fill="#000"/>
  <path d="m124.7 75.98 30.06 43.64-28.14 23.78h-1.92v-67.42z" fill="#000"/>
  <path d="m123.8 75.98-29.19 43.64 26.05 23.78h3.14v-67.42z" fill="#000"/>
  <path d="m190 90.71-15.06 52.69h-45.17l60.23-52.69z" fill="#000"/>
  <path d="m59.41 90.51 14.11 52.89h45.29l-59.4-52.89z" fill="#000"/>
  <path d="m165.7 109.6-9.63 8.89-9.29-13.46 11.78-15.05 7.14 18.75v0.87z" fill="#000"/>
  <path d="m83.39 109.6 10.22 7.93 8.45-12.89-11.21-14.66-7.46 18.75v0.87z" fill="#000"/>
  <path d="m74.22 145h100.7v11.22h-100.7v-11.22z" fill="#000"/>
</svg>